<svg width="27" height="34" viewBox="0 0 27 34" fill="none" xmlns="http://www.w3.org/2000/svg">
<path d="M22.403 18.1596C22.4355 15.6381 23.7896 13.2522 25.9378 11.9315C24.5826 9.99603 22.3127 8.76888 19.9511 8.69499C17.4322 8.4306 14.9903 10.2022 13.7068 10.2022C12.3983 10.2022 10.4221 8.72124 8.294 8.76503C5.52012 8.85464 2.93417 10.4317 1.58462 12.8568C-1.31638 17.8795 0.847504 25.261 3.62642 29.3209C5.01677 31.309 6.64169 33.5297 8.76786 33.4509C10.8485 33.3646 11.6255 32.1242 14.137 32.1242C16.6251 32.1242 17.3542 33.4509 19.5235 33.4008C21.756 33.3646 23.1627 31.404 24.5042 29.3971C25.5032 27.9806 26.2719 26.415 26.7819 24.7584C24.1582 23.6487 22.4061 21.0083 22.403 18.1596Z" fill="white"/>
<path d="M18.3055 6.02499C19.5228 4.56368 20.1225 2.68541 19.9773 0.789062C18.1175 0.984393 16.3996 1.87323 15.1659 3.27848C13.9595 4.65147 13.3317 6.4967 13.4503 8.32056C15.3108 8.33972 17.1397 7.47497 18.3055 6.02499Z" fill="white"/>
</svg>
