<svg width="36" height="39" viewBox="0 0 36 39" fill="none" xmlns="http://www.w3.org/2000/svg">
<path d="M16.8213 18.8432L0.851562 35.7932C0.852162 35.7967 0.853362 35.7997 0.853962 35.8032C1.34371 37.6436 3.02476 38.9989 5.01991 38.9989C5.81746 38.9989 6.56626 38.7833 7.20841 38.4048L7.25941 38.3749L25.2354 28.0021L16.8213 18.8432" fill="#EA4335"/>
<path d="M32.9783 15.9569L32.963 15.9464L25.2023 11.4474L16.459 19.2276L25.2328 28.0002L32.9525 23.546C34.306 22.8153 35.2247 21.3885 35.2247 19.7432C35.2247 18.1097 34.3183 16.6899 32.9783 15.9569" fill="#FBBC04"/>
<path d="M0.851538 3.62283C0.755538 3.97683 0.705078 4.34763 0.705078 4.73268V34.6841C0.705078 35.0684 0.754938 35.4405 0.852138 35.7932L17.3715 19.2768L0.851538 3.62283Z" fill="#4285F4"/>
<path d="M16.9397 19.7081L25.2056 11.4446L7.24996 1.03433C6.59731 0.643428 5.83561 0.417831 5.02051 0.417831C3.02536 0.417831 1.34206 1.77548 0.852162 3.61823C0.851562 3.62003 0.851563 3.62123 0.851563 3.62288L16.9397 19.7081Z" fill="#34A853"/>
</svg>
