<svg width="1024" height="1024" viewBox="0 0 1024 1024" fill="none" xmlns="http://www.w3.org/2000/svg">
<g clip-path="url(#clip0_13420_151089)">
<rect width="1024" height="1024" rx="200" fill="white"/>
<path d="M314.534 860.134C314.534 811.535 365.71 779.412 409.109 801.226C443.718 818.576 482.744 828.379 524.072 828.379C565.4 828.379 604.473 818.622 639.035 801.226C682.48 779.412 733.61 811.535 733.61 860.134C711.704 876.104 688.048 889.496 662.828 900.127C618.831 918.72 572.119 928.155 524.026 928.155C475.933 928.155 429.221 918.72 385.224 900.127C360.004 889.45 336.348 876.058 314.442 860.134H314.534Z" fill="url(#paint0_linear_13420_151089)"/>
<path d="M653.634 795.929C613.687 863.259 540.236 908.407 456.292 908.407C402.815 908.407 353.571 890.09 314.544 859.393V860.13C336.451 876.099 360.106 889.492 385.326 900.123C429.323 918.716 476.496 977.67 524.589 977.67C572.682 977.67 618.888 918.716 662.931 900.123C675.541 894.784 687.737 888.801 699.564 882.082C711.392 875.409 722.759 868.046 733.713 860.084C733.713 816.869 693.213 786.633 653.681 795.883L653.634 795.929Z" fill="url(#paint1_linear_13420_151089)"/>
<path d="M269.127 621.739C275.386 629.379 282.105 636.88 289.192 644.014C289.56 644.474 290.021 644.888 290.435 645.302L291.125 645.993C332.913 687.78 383.215 715.808 436.463 730.167C545.12 759.345 665.928 731.317 751.207 645.993C878.274 518.926 878.228 312.977 751.207 185.957C624.186 58.9359 418.238 58.8899 291.171 185.957C247.726 229.401 219.101 282.051 205.386 337.691C203.131 346.758 200.692 355.824 199.818 365.12C185.229 518.88 269.127 621.739 269.127 621.739ZM408.297 297.284C409.954 295.765 411.565 294.246 413.221 292.774C413.82 292.267 414.418 291.715 415.062 291.163C415.845 290.427 416.627 289.782 417.456 289.138C418.284 288.448 419.066 287.757 419.941 287.113C422.104 285.41 424.221 283.845 426.384 282.281C427.12 281.774 427.902 281.222 428.593 280.716C429.237 280.348 429.789 279.888 430.388 279.519C431.492 278.783 432.551 278.139 433.655 277.402C435.818 276.022 438.027 274.687 440.282 273.444C440.973 273.03 441.663 272.616 442.399 272.248C445.253 270.683 448.106 269.21 451.006 267.876C452.156 267.278 453.353 266.771 454.595 266.265C455.7 265.759 456.85 265.207 458.047 264.746C460.072 263.918 462.097 263.136 464.122 262.353C465.18 261.985 466.193 261.617 467.159 261.249C467.758 261.019 468.448 260.834 469.092 260.558L472.82 259.408C478.205 257.751 483.635 256.37 489.204 255.312C490.216 255.082 491.275 254.898 492.333 254.713C494.496 254.345 496.613 253.977 498.73 253.701C500.893 253.425 503.01 253.195 505.173 252.919C506.14 252.873 507.152 252.735 508.119 252.689C514.056 252.182 520.085 252.09 526.067 252.228C527.126 252.228 528.23 252.274 529.335 252.366C529.933 252.412 530.486 252.458 531.038 252.458C533.201 252.596 535.272 252.781 537.343 252.965C538.723 253.103 540.012 253.241 541.393 253.425C542.635 253.563 543.924 253.747 545.213 253.931C550.689 254.76 556.028 255.864 561.458 257.199C562.333 257.429 563.253 257.613 564.082 257.889C565.37 258.257 566.567 258.579 567.809 258.948C570.295 259.684 572.826 260.512 575.311 261.387C576.461 261.755 577.704 262.215 578.809 262.675C579.729 262.997 580.557 263.32 581.432 263.688C582.26 264.01 583.043 264.332 583.871 264.7C584.607 264.976 585.344 265.253 586.034 265.575C587.231 266.127 588.427 266.633 589.624 267.185C590.452 267.554 591.327 267.968 592.109 268.382C594.548 269.533 596.941 270.729 599.288 272.018C600.807 272.846 602.234 273.675 603.661 274.549C604.811 275.193 605.962 275.884 607.158 276.62L608.815 277.678C609.966 278.415 611.162 279.197 612.313 279.98C613.371 280.624 614.338 281.36 615.35 282.051C618.71 284.444 621.977 286.929 625.199 289.598C626.349 290.565 627.592 291.577 628.696 292.59C629.985 293.694 631.32 294.845 632.608 296.087C645.955 310.124 657.368 325.403 666.895 341.511C666.895 341.511 666.941 341.557 666.941 341.695C668.874 345.515 670.668 349.427 672.325 353.385C672.325 353.385 672.325 353.477 672.371 353.523C674.718 359.183 676.651 364.982 678.354 370.827L679.045 373.266C679.413 374.601 679.781 375.981 680.103 377.316C680.195 377.822 680.333 378.283 680.379 378.697C680.701 380.077 680.977 381.412 681.3 382.747C681.484 383.713 681.668 384.68 681.852 385.692C682.128 386.843 682.266 388.085 682.45 389.236C682.588 389.88 682.68 390.57 682.772 391.261C682.956 392.549 683.14 393.884 683.325 395.219C683.417 395.909 683.509 396.599 683.601 397.29C683.785 398.9 683.969 400.511 684.061 402.122C684.061 402.398 684.107 402.766 684.153 403.134C684.291 404.699 684.337 406.264 684.429 407.829C684.475 408.565 684.475 409.209 684.567 409.9C684.613 411.05 684.613 412.293 684.659 413.489V416.021C684.659 417.769 684.659 419.564 684.567 421.313C684.567 421.405 684.567 421.451 684.567 421.589C684.567 423.062 684.429 424.535 684.383 425.961C684.337 427.02 684.199 428.032 684.153 428.999C684.153 429.137 684.153 429.229 684.153 429.367C683.969 431.208 683.831 433.095 683.601 434.89C683.371 437.053 683.094 439.262 682.772 441.379C682.496 442.943 682.266 444.508 681.944 446.119C681.852 446.533 681.76 446.947 681.668 447.408C681.392 448.88 681.069 450.399 680.701 451.918C680.655 452.24 680.517 452.516 680.517 452.884C680.103 454.587 679.689 456.336 679.137 458.039C678.078 462.181 676.835 466.277 675.409 470.327C674.949 471.615 674.488 472.95 673.982 474.238C673.798 474.745 673.614 475.251 673.384 475.757C673.384 475.803 673.338 475.895 673.338 475.941C672.785 477.46 672.279 478.795 671.635 480.221C669.932 484.179 668.091 488.045 666.112 491.865C665.146 493.66 664.179 495.455 663.167 497.203C662.339 498.722 661.464 500.149 660.544 501.668C660.221 502.128 659.945 502.634 659.577 503.186C658.749 504.521 657.92 505.81 657.046 507.098C655.988 508.663 654.975 510.136 653.916 511.654C653.318 512.483 652.766 513.219 652.168 514.001C651.109 515.474 649.959 516.855 648.808 518.327C647.842 519.478 646.921 520.675 645.909 521.825C645.725 522.101 645.541 522.331 645.356 522.516C644.206 523.896 642.963 525.231 641.767 526.519C641.399 527.026 640.984 527.44 640.616 527.808C639.374 529.189 638.085 530.477 636.796 531.766C572.826 595.737 469.092 595.783 405.122 531.766C381.282 507.927 366.325 478.611 360.296 447.868C350.079 396.047 365.036 340.268 405.168 300.091C406.134 299.125 407.147 298.158 408.113 297.192L408.297 297.284Z" fill="url(#paint2_linear_13420_151089)"/>
<g style="mix-blend-mode:overlay" opacity="0.3">
<path d="M294.75 641.293C401.935 748.479 575.714 748.479 682.899 641.293C790.084 534.108 790.084 360.329 682.899 253.144C575.714 145.959 401.935 145.959 294.75 253.144C187.564 360.329 187.564 534.108 294.75 641.293ZM634.346 301.697C697.534 364.885 697.534 467.376 634.346 530.564C571.158 593.753 468.667 593.753 405.479 530.564C342.29 467.376 342.29 364.885 405.479 301.697C468.667 238.509 571.158 238.509 634.346 301.697Z" fill="white"/>
</g>
<path d="M178.363 549.385L179.652 550.628L180.02 550.996C180.342 551.318 180.618 551.595 180.94 551.871C226.226 595.914 394.022 712.211 452.746 713.868C517.223 715.709 582.344 692.008 631.542 642.81C697.998 576.354 717.925 480.905 691.232 397.099C686.492 382.188 680.279 367.599 672.593 353.7C674.94 359.361 676.92 365.159 678.622 371.004C678.852 371.787 679.083 372.615 679.313 373.443C679.681 374.824 680.049 376.159 680.371 377.493C680.509 377.954 680.601 378.414 680.693 378.874C681.015 380.255 681.292 381.543 681.568 382.924C681.798 383.936 681.982 384.903 682.12 385.915C682.396 387.066 682.58 388.262 682.764 389.459C682.856 390.149 682.994 390.794 683.086 391.484C683.316 392.773 683.501 394.107 683.639 395.396C683.731 396.086 683.823 396.777 683.869 397.467C684.099 399.078 684.237 400.688 684.375 402.253C684.375 402.575 684.375 402.897 684.421 403.266C684.559 404.83 684.651 406.395 684.743 407.96C684.743 408.65 684.789 409.341 684.835 410.031C684.881 411.227 684.927 412.424 684.927 413.667C684.927 414.495 684.927 415.323 684.927 416.152C684.927 417.947 684.927 419.695 684.835 421.49C684.835 421.536 684.835 421.628 684.835 421.72C684.835 423.193 684.743 424.666 684.605 426.139C684.559 427.151 684.467 428.164 684.375 429.176C684.375 429.314 684.375 429.406 684.375 429.544C684.237 431.385 684.053 433.226 683.823 435.021C683.547 437.184 683.27 439.347 682.948 441.51C682.718 443.075 682.442 444.639 682.12 446.25C682.028 446.664 681.982 447.079 681.89 447.539C681.568 449.058 681.292 450.576 680.923 452.049C680.831 452.371 680.739 452.693 680.693 453.061C680.325 454.764 679.865 456.513 679.359 458.216C678.3 462.358 677.012 466.408 675.585 470.458C675.125 471.792 674.664 473.081 674.158 474.37C673.974 474.876 673.79 475.382 673.56 475.888C673.008 477.407 672.409 478.88 671.765 480.306C670.062 484.264 668.221 488.13 666.242 491.95C665.276 493.745 664.309 495.54 663.297 497.289C662.469 498.761 661.594 500.28 660.674 501.707C660.352 502.167 660.075 502.719 659.707 503.225C658.879 504.56 658.004 505.849 657.13 507.183C656.118 508.702 655.059 510.221 654.001 511.693C653.402 512.476 652.85 513.258 652.252 514.041C651.193 515.513 650.043 516.94 648.892 518.367C647.926 519.517 647.005 520.714 645.993 521.864C645.809 522.094 645.625 522.325 645.394 522.555C644.244 523.935 643.047 525.27 641.805 526.559C641.437 527.019 641.022 527.433 640.608 527.893C639.366 529.228 638.077 530.562 636.788 531.851C572.818 595.822 403.549 733.427 179.468 550.674" fill="url(#paint3_radial_13420_151089)"/>
<path d="M672.638 353.659C680.37 367.603 686.583 382.146 691.277 397.103C693.118 402.902 694.729 408.701 696.109 414.592C696.109 414.914 696.063 415.19 696.017 415.466C695.741 417.031 695.511 418.596 695.189 420.206C695.097 420.621 695.005 421.035 694.913 421.495C694.636 422.968 694.314 424.487 693.946 426.005C693.9 426.327 693.762 426.604 693.762 426.972C693.348 428.675 692.934 430.423 692.381 432.126C691.323 436.268 690.08 440.364 688.654 444.414C688.193 445.703 687.733 447.037 687.227 448.326C687.043 448.832 686.859 449.338 686.629 449.845C686.076 451.363 685.478 452.836 684.834 454.309C683.131 458.267 681.29 462.133 679.311 465.952C678.345 467.747 677.378 469.542 676.366 471.291C675.537 472.81 674.663 474.236 673.742 475.755C673.65 475.847 673.605 475.939 673.558 476.077C673.558 476.031 673.604 475.939 673.604 475.893C673.835 475.387 673.973 474.927 674.203 474.374C674.709 473.086 675.169 471.751 675.629 470.463C677.056 466.413 678.299 462.317 679.357 458.175C679.863 456.472 680.324 454.769 680.738 453.02C680.738 452.652 680.876 452.376 680.922 452.054C681.29 450.535 681.566 449.016 681.888 447.544C681.934 447.083 682.073 446.669 682.165 446.255C682.441 444.644 682.717 443.079 682.993 441.515C683.315 439.352 683.591 437.189 683.821 435.026C684.051 433.231 684.19 431.39 684.374 429.503C684.374 429.365 684.374 429.273 684.374 429.135C684.42 428.168 684.558 427.156 684.604 426.097C684.65 424.671 684.788 423.198 684.788 421.725C684.788 421.587 684.788 421.541 684.788 421.449C684.834 419.7 684.88 417.905 684.88 416.157V413.625C684.88 412.429 684.88 411.186 684.788 410.036C684.742 409.299 684.742 408.655 684.65 407.965C684.604 406.4 684.512 404.835 684.374 403.27C684.374 402.902 684.328 402.534 684.282 402.258C684.19 400.647 684.005 399.036 683.821 397.426C683.775 396.689 683.637 396.045 683.545 395.355C683.361 394.02 683.177 392.731 682.993 391.397C682.901 390.706 682.809 390.016 682.671 389.372C682.487 388.221 682.303 386.979 682.073 385.828C681.888 384.816 681.704 383.849 681.52 382.883C681.244 381.548 680.922 380.213 680.6 378.833C680.554 378.373 680.416 377.912 680.324 377.452C679.956 376.117 679.587 374.737 679.265 373.402L678.575 370.963C676.872 365.118 674.939 359.319 672.592 353.659H672.638Z" fill="url(#paint4_radial_13420_151089)"/>
<path d="M178.363 549.389C181.309 552.335 184.576 555.234 187.89 558.18C319.329 674.247 513.403 687.593 633.429 578.383C635.132 576.818 636.65 575.07 638.261 573.367C638.767 572.815 639.274 572.308 639.78 571.664C641.299 570.007 642.817 568.35 644.29 566.602C644.566 566.325 644.796 566.049 645.026 565.773C646.269 564.3 647.465 562.828 648.662 561.355C650.089 559.514 651.515 557.719 652.896 555.878C653.632 554.912 654.369 553.9 655.105 552.887C656.486 551 657.82 549.113 659.109 547.18C660.213 545.477 661.318 543.867 662.376 542.164C662.791 541.52 663.205 540.875 663.573 540.277C664.678 538.436 665.828 536.549 666.887 534.662C668.175 532.453 669.372 530.198 670.614 527.897C673.146 523.065 675.493 518.094 677.61 513.124C678.392 511.283 679.175 509.442 679.911 507.509C680.187 506.865 680.417 506.221 680.647 505.576C681.292 503.92 681.89 502.263 682.442 500.606C684.237 495.498 685.848 490.343 687.182 485.051C687.827 482.934 688.379 480.725 688.885 478.561C688.885 478.147 689.023 477.733 689.161 477.319C689.575 475.432 689.99 473.499 690.358 471.566C690.45 471.014 690.542 470.508 690.634 469.955C691.002 467.93 691.37 465.951 691.647 463.973C692.107 461.257 692.429 458.496 692.797 455.781C693.073 453.479 693.257 451.132 693.487 448.831C693.487 448.647 693.487 448.509 693.487 448.371C693.579 447.082 693.717 445.84 693.763 444.551C693.902 442.71 693.994 440.823 694.04 438.983C694.04 438.891 694.04 438.798 694.04 438.706C694.132 436.405 694.178 434.196 694.132 431.941C694.132 430.883 694.132 429.87 694.132 428.812C694.132 427.247 694.086 425.682 693.994 424.209C693.994 423.289 693.948 422.461 693.856 421.586C693.764 419.607 693.625 417.628 693.487 415.649C693.487 415.189 693.487 414.775 693.441 414.361C693.257 412.336 693.073 410.311 692.797 408.24C692.705 407.319 692.613 406.491 692.475 405.617C692.291 403.96 692.015 402.257 691.785 400.646C691.693 399.772 691.555 398.943 691.416 398.115C691.416 397.793 691.324 397.425 691.232 397.103C717.925 480.863 697.998 576.312 631.542 642.814C582.344 692.012 517.223 712.123 452.746 713.872C345.699 716.771 248.685 627.719 180.94 551.875C180.618 551.598 180.342 551.322 180.02 551L179.652 550.632L178.363 549.389Z" fill="url(#paint5_linear_13420_151089)"/>
<path d="M827.417 63.8999V64.1761L824.379 120.921C824.057 126.49 820.053 130.862 814.899 131.92C814.853 131.92 814.807 131.92 814.761 131.92C813.656 132.059 812.506 132.105 811.309 132.105C810.803 132.105 810.251 132.059 809.744 132.059L804.59 131.782L690.869 125.707C680.422 125.155 672.369 116.227 672.967 105.78L675.13 64.7743L675.59 55.8L827.187 63.8539H827.417V63.8999Z" fill="url(#paint6_linear_13420_151089)"/>
<path d="M832.523 113.56C832.569 124.329 825.758 130.818 814.896 131.923C814.85 131.923 814.804 131.923 814.758 131.923C813.654 132.061 812.503 132.107 811.307 132.107C810.8 132.107 810.248 132.061 809.742 132.061C808.407 132.015 806.658 131.923 804.588 131.784C775.41 98.8327 718.526 77.2484 675.128 64.7764C643.05 55.572 618.428 51.338 617.876 51.2L805.554 53.2709C814.436 53.0408 822.352 57.2749 827.184 63.856C827.322 63.948 827.368 64.0401 827.414 64.1321C830.544 68.4122 832.385 73.6587 832.385 79.3654L832.523 113.514V113.56Z" fill="url(#paint7_linear_13420_151089)"/>
<circle cx="146.347" cy="777.387" r="26.6667" fill="#FECD4C"/>
<circle cx="162.347" cy="702.72" r="16" fill="#F4783C"/>
<circle cx="85.0134" cy="801.387" r="13.3333" fill="#007BFF"/>
<circle cx="127.68" cy="876.054" r="8" fill="#F4783C"/>
<circle cx="106.347" cy="678.72" r="8" fill="#F69363"/>
<circle cx="913.28" cy="216.107" r="26.6667" fill="#FECD4C"/>
<circle cx="966.613" cy="258.774" r="16" fill="#F4783C"/>
<circle cx="894.613" cy="325.44" r="13.3333" fill="#007BFF"/>
<circle cx="958.613" cy="346.774" r="8" fill="#F4783C"/>
<circle cx="873.28" cy="266.774" r="8" fill="#F69363"/>
<path d="M1242.87 577.142C824.721 638.997 653.961 995.198 628.877 1130.46" stroke="#FECD4C" stroke-width="5.12"/>
<path d="M1281.91 740.82C859.227 736.938 635.184 1062.27 589.383 1191.99" stroke="#FECD4C" stroke-width="5.12"/>
<path d="M1327.97 939.089C920.695 825.94 620.083 1082.2 542.269 1195.65" stroke="#FECD4C" stroke-width="5.12"/>
<path d="M354.479 -225.983C355.557 196.719 28.7419 418.598 -101.28 463.537" stroke="#F3823F" stroke-width="5.12"/>
<path d="M186.816 -240.225C253.573 177.175 -34.7878 447.148 -156.245 511.748" stroke="#F3823F" stroke-width="5.12"/>
<path d="M-16.1 -256.258C156.413 129.64 -52.2479 465.048 -152.847 558.882" stroke="#F3823F" stroke-width="5.12"/>
</g>
<defs>
<linearGradient id="paint0_linear_13420_151089" x1="314.534" y1="861.239" x2="733.656" y2="861.239" gradientUnits="userSpaceOnUse">
<stop stop-color="#FCC74D"/>
<stop offset="1" stop-color="#F3823F"/>
</linearGradient>
<linearGradient id="paint1_linear_13420_151089" x1="748.302" y1="885.994" x2="311.691" y2="885.994" gradientUnits="userSpaceOnUse">
<stop stop-color="#FCC74D"/>
<stop offset="1" stop-color="#F3823F"/>
</linearGradient>
<linearGradient id="paint2_linear_13420_151089" x1="844.622" y1="394.922" x2="203.21" y2="436.707" gradientUnits="userSpaceOnUse">
<stop stop-color="#FCC74D"/>
<stop offset="1" stop-color="#F3823F"/>
</linearGradient>
<radialGradient id="paint3_radial_13420_151089" cx="0" cy="0" r="1" gradientUnits="userSpaceOnUse" gradientTransform="translate(256.278 483.463) rotate(-135) scale(356.717)">
<stop stop-color="#F8A947"/>
<stop offset="0.89" stop-color="#F27F3E"/>
<stop offset="1" stop-color="#F27A3D"/>
</radialGradient>
<radialGradient id="paint4_radial_13420_151089" cx="0" cy="0" r="1" gradientUnits="userSpaceOnUse" gradientTransform="translate(625.927 403.056) rotate(-135) scale(62.8201)">
<stop stop-color="#F8A947"/>
<stop offset="0.89" stop-color="#F27F3E"/>
<stop offset="1" stop-color="#F27A3D"/>
</radialGradient>
<linearGradient id="paint5_linear_13420_151089" x1="343.59" y1="383.139" x2="645.519" y2="685.068" gradientUnits="userSpaceOnUse">
<stop stop-color="#F8A947"/>
<stop offset="1" stop-color="#F27A3D"/>
</linearGradient>
<linearGradient id="paint6_linear_13420_151089" x1="672.967" y1="93.9983" x2="827.417" y2="93.9983" gradientUnits="userSpaceOnUse">
<stop stop-color="#FCC74D"/>
<stop offset="1" stop-color="#F3823F"/>
</linearGradient>
<linearGradient id="paint7_linear_13420_151089" x1="832.523" y1="91.6993" x2="617.876" y2="91.6993" gradientUnits="userSpaceOnUse">
<stop stop-color="#FCC74D"/>
<stop offset="1" stop-color="#F3823F"/>
</linearGradient>
<clipPath id="clip0_13420_151089">
<rect width="1024" height="1024" rx="200" fill="white"/>
</clipPath>
</defs>
</svg>
